<?xml version="1.0" standalone="no"?><!DOCTYPE svg PUBLIC "-//W3C//DTD SVG 1.1//EN" "http://www.w3.org/Graphics/SVG/1.1/DTD/svg11.dtd"><svg t="1629213554377" class="icon" viewBox="0 0 1024 1024" version="1.1" xmlns="http://www.w3.org/2000/svg" p-id="1753" xmlns:xlink="http://www.w3.org/1999/xlink" width="200" height="200"><defs><style type="text/css"></style></defs><path d="M832 739.5328h57.9584v30.1056H587.5712v-30.1056h48.5376L604.5696 555.008l-0.8192-4.5056 4.608-0.7168 21.0944-3.4816 4.5056-0.7168 0.8192 4.5056 32.4608 189.6448h49.8688V510.8736H571.392v-30.1056h145.6128v-99.328h-97.0752v-30.1056h228.5568v30.1056H747.52v99.328h162.9184v30.1056h-162.816v228.6592h53.4528L833.536 549.9904l0.7168-4.5056 4.5056 0.7168 21.0944 3.4816 4.608 0.7168-0.8192 4.5056-31.6416 184.6272z m-428.032-9.728V582.4512h74.8544V423.2192h-30.6176v129.1264h-44.2368V413.7984h-30.6176v138.5472h-43.52V423.2192h-30.6176v159.232h74.1376v147.3536h-43.52V602.624h-30.6176v157.2864h179.5072V602.624h-30.6176v127.1808h-44.1344zM148.8896 582.4512l-21.6064 21.1968-3.1744 3.1744-3.1744-3.1744-15.1552-14.848-3.3792-3.2768 3.3792-3.2768 43.1104-42.3936V364.2368h-37.6832v-30.1056h37.6832v-79.872h30.6176v79.872h44.1344v30.1056h-44.1344V509.952l25.6-25.088 3.1744-3.1744 3.1744 3.1744 15.1552 14.7456 3.3792 3.2768-3.3792 3.2768-47.104 46.2848V617.472c0 33.1776-5.12 65.024-13.824 94.4128-5.3248 18.0224-10.5472 31.1296-14.7456 39.6288l-4.7104 9.4208-2.048 3.9936-4.096-1.9456-19.2512-9.1136-4.1984-2.048 2.048-4.1984 4.608-9.4208c0.7168-1.3312 2.2528-4.8128 3.9936-9.3184 2.9696-7.4752 5.9392-15.9744 8.704-25.4976 7.8848-26.9312 12.6976-56.0128 12.6976-86.016v-34.9184z m97.792 180.1216l0.9216-4.5056 2.1504-10.24c12.8-61.6448 17.5104-195.584 16.9984-358.6048H487.424V254.3616H234.496l0.1024 4.7104 0.2048 10.6496c0.2048 10.24 0.6144 32.768 0.8192 59.904 0.4096 44.7488 0.512 91.0336 0.1024 136.6016-1.2288 129.536-6.144 227.84-16.0768 275.5584l-2.1504 10.24-0.9216 4.5056 4.5056 0.9216 20.992 4.1984 4.608 0.9216z m19.8656-403.456l-1.024-74.6496H456.704v74.6496H266.5472z m634.2656 31.4368l3.072-3.2768 14.5408-15.36 3.1744-3.3792-3.4816-3.1744-121.344-109.8752-3.072-1.2288H666.9312l-3.072 1.2288-121.2416 109.8752-3.4816 3.1744 3.1744 3.3792 14.5408 15.36 3.072 3.2768 3.3792-2.9696 115.2-103.0144H782.336l115.2 103.0144 3.2768 2.9696z" p-id="1754"></path></svg>