<?xml version="1.0" standalone="no"?><!DOCTYPE svg PUBLIC "-//W3C//DTD SVG 1.1//EN" "http://www.w3.org/Graphics/SVG/1.1/DTD/svg11.dtd"><svg t="1647431940772" class="icon" viewBox="0 0 1024 1024" version="1.1" xmlns="http://www.w3.org/2000/svg" p-id="1375" xmlns:xlink="http://www.w3.org/1999/xlink" width="200" height="200"><defs><style type="text/css"></style></defs><path d="M796.444444 113.777778H284.444444c-34.133333 0-56.888889 22.755556-56.888888 56.888889v739.555555c0 34.133333 22.755556 56.888889 56.888888 56.888889h512c34.133333 0 56.888889-22.755556 56.888889-56.888889V170.666667c0-34.133333-22.755556-56.888889-56.888889-56.888889z m-113.777777 56.888889v113.777777H398.222222V170.666667h284.444445zM398.222222 910.222222v-113.777778h284.444445v113.777778H398.222222z m398.222222 0h-56.888888v-113.777778c0-34.133333-22.755556-56.888889-56.888889-56.888888H398.222222c-34.133333 0-56.888889 22.755556-56.888889 56.888888v113.777778H284.444444v-341.333333h119.466667c11.377778 62.577778 68.266667 113.777778 136.533333 113.777778s125.155556-51.2 136.533334-113.777778H796.444444v341.333333z m-176.355555-341.333333c-11.377778 34.133333-45.511111 56.888889-79.644445 56.888889s-68.266667-22.755556-79.644444-56.888889h159.288889zM460.8 512c11.377778-34.133333 45.511111-56.888889 79.644444-56.888889s68.266667 22.755556 79.644445 56.888889H460.8z m216.177778 0c-11.377778-62.577778-68.266667-113.777778-136.533334-113.777778s-125.155556 51.2-136.533333 113.777778H284.444444V170.666667h56.888889v113.777777c0 34.133333 22.755556 56.888889 56.888889 56.888889h284.444445c34.133333 0 56.888889-22.755556 56.888889-56.888889V170.666667h56.888888v341.333333h-119.466666z" p-id="1376"></path></svg>