<svg t="1647419947130" class="icon" viewBox="0 0 1024 1024" version="1.1" xmlns="http://www.w3.org/2000/svg" p-id="2698" width="200" height="200"><path d="M879.494796 280.88199c0-0.903158-0.180632-1.625684-0.361263-2.34821l-0.541894-2.167578s0-0.180632-0.180632-0.180631c-0.180632-0.541895-0.361263-1.264421-0.722526-1.806315 0-0.180632-0.180632-0.361263-0.180631-0.541895-0.180632-0.541895-0.541895-1.083789-0.722526-1.445052-0.180632-0.180632-0.180632-0.361263-0.361263-0.722526s-0.541895-0.903158-0.722526-1.264421c-0.180632-0.180632-0.361263-0.541895-0.541895-0.722526-0.180632-0.361263-0.541895-0.722526-0.903157-1.083789-0.180632-0.180632-0.361263-0.541895-0.722526-0.722526-0.361263-0.361263-0.541895-0.722526-0.903158-0.903157l-0.361263-0.361263L654.427941 65.569236c-0.180632-0.180632-0.361263-0.180632-0.541894-0.361263-0.180632-0.180632-0.541895-0.541895-0.903158-0.722526-0.361263-0.180632-0.541895-0.361263-0.903157-0.722526-0.361263-0.180632-0.541895-0.361263-0.903158-0.541894-0.361263-0.180632-0.541895-0.361263-0.903157-0.541895l-1.083789-0.541894c-0.361263-0.180632-0.541895-0.361263-0.903158-0.361263l-1.083789-0.541895c-0.361263-0.180632-0.541895-0.180632-0.903157-0.361263s-0.722526-0.361263-1.264421-0.361263c-0.361263 0-0.541895-0.180632-0.903157-0.180631-0.361263-0.180632-0.722526-0.180632-1.083789-0.361263-0.361263 0-0.722526-0.180632-1.083789-0.180632-0.361263 0-0.722526-0.180632-0.903158-0.180631-0.722526 0-1.445052-0.180632-2.167578-0.180632H265.528312c-66.833657 0-121.023108 54.370083-121.023108 121.023108v662.917622c0 66.833657 54.370083 121.023108 121.023108 121.023108h493.124008c66.833657 0 121.023108-54.370083 121.023108-121.023108V283.230199c0-0.722526-0.180632-1.625684-0.180632-2.348209zM661.653202 133.667313l137.641206 126.983948h-61.595343c-41.906509 0-75.865232-34.139354-75.865232-75.865232V133.667313z m96.818486 785.747046H265.528312c-41.906509 0-75.865232-34.139354-75.865232-75.865232V180.631505c0-41.906509 34.139354-75.865232 75.865232-75.865232h350.967013v80.019756c0 66.833657 54.370083 121.023108 121.023109 121.023108H834.517552v537.559358c0 41.906509-34.139354 76.045863-76.045864 76.045864z" p-id="2699"></path><path d="M704.462868 752.872111H317.911448c-11.199153 0-24.02399 6.863997-24.02399 20.411361 0 11.379785 9.934733 20.41136 24.02399 20.41136h392.51226c15.895572 0 18.243782-7.586523 18.243782-20.41136-0.180632-12.463574-5.238314-20.41136-24.204622-20.411361zM704.462868 611.979538H404.61457c-11.199153 0-24.02399 6.863997-24.02399 20.41136 0 11.379785 9.934733 20.41136 24.02399 20.41136h305.809138c15.895572 0 18.243782-7.586523 18.243782-20.41136-0.180632-12.463574-5.238314-20.41136-24.204622-20.41136zM704.462868 478.312224h-155.343094c-11.199153 0-24.02399 6.863997-24.02399 20.41136 0 11.379785 9.934733 20.41136 24.02399 20.41136h161.303934c15.895572 0 18.243782-7.586523 18.243782-20.41136-0.180632-12.463574-5.238314-20.41136-24.204622-20.41136zM338.142177 439.657082h96.637855c23.662727 0 44.796613-13.366731 55.092609-34.681249 10.115364-20.953255 7.586523-45.338508-6.863998-63.582289-10.295996-13.005468-22.940201-23.662727-37.210089-31.429882 11.741048-13.727994 18.785676-31.429882 18.785676-50.757453 0-43.17093-35.042512-78.213442-78.213442-78.213441s-78.213442 35.042512-78.213441 78.213441c0 19.327571 7.044629 37.21009 18.785676 50.757453-13.547363 7.586523-25.830305 17.521256-35.945669 29.98483-15.173046 18.424413-18.243782 43.351561-7.947786 64.84671 10.295996 21.495149 31.429882 34.86188 55.092609 34.86188zM386.55142 224.344329c19.146939 0 34.86188 15.714941 34.86188 34.86188 0 19.146939-15.714941 34.86188-34.86188 34.861881s-34.86188-15.714941-34.86188-34.861881c0-19.146939 15.534309-34.86188 34.86188-34.86188z m-61.956606 143.240783c15.173046-18.605045 37.751984-29.262304 61.775974-29.262304 24.565885 0 47.325454 11.018522 62.679133 30.346093 5.780208 7.405892 3.251367 14.811783 1.806315 17.701887-1.083789 2.34821-5.780208 10.115364-16.076204 10.115365h-96.637855c-9.934733 0-14.45052-7.044629-15.895573-9.934733-1.083789-2.528841-4.154525-11.018522 2.34821-18.966308z" p-id="2700"></path></svg>