<svg t="1632709942664" class="icon" viewBox="0 0 1024 1024" version="1.1" xmlns="http://www.w3.org/2000/svg" p-id="4421" width="200" height="200"><path d="M69.781826 15.011925h884.770031c21.778563 0 40.128594 16.826805 40.128594 37.433656v918.058118c0 21.684316-18.339842 38.48565-40.128594 38.48565h-884.770031c-22.076585 0-40.446994-16.801333-40.446994-38.48565V52.445581c0-20.606851 18.370409-37.433656 40.446994-37.433656z m442.507281 108.494177a87.254347 87.254347 0 0 1 60.538037 24.162742h0.294201l0.556564 0.550195a76.852854 76.852854 0 0 1 24.669635 56.964315l-0.290381 2.17913v112.024596h191.294744c38.409234 0 73.98598-14.347106 99.23765-39.061317 10.297057-8.9394 18.339842-20.080854 25.226199-31.474481V90.955429H110.22882v157.895853c6.85579 11.393627 15.167304 22.535081 25.226199 31.474481 25.809507 24.714211 60.802945 39.061317 99.213452 39.061317h191.326584v-111.223502l-0.317127-2.980224a79.124957 79.124957 0 0 1 25.226199-57.51451 89.340504 89.340504 0 0 1 61.387527-24.162742zM110.22882 321.564936v610.92944h803.589483V321.564936a196.261785 196.261785 0 0 1-124.463849 44.494495h-191.294744v112.331534l0.290381 1.877287c0 23.061078-9.740494 43.141932-25.226199 58.065978l-1.747379 1.076193a87.903883 87.903883 0 0 1-119.857237-1.076193l-0.608781-0.275097-0.556564-0.802368a78.036029 78.036029 0 0 1-24.669635-56.988513l0.317127-2.454227v-111.754594H234.667197a196.800517 196.800517 0 0 1-124.438377-44.494495z m439.356394 44.494495h-75.440432v40.939877a98.951091 98.951091 0 0 1 38.144325-7.863207 94.645049 94.645049 0 0 1 37.296107 7.863207v-40.939877z m-75.440432-46.672351h75.440432v-40.964076c-11.170747 5.433178-24.114345 7.887406-37.296107 7.887406a89.423288 89.423288 0 0 1-38.144325-7.887406v40.964076z m64.56134-139.69356a38.902117 38.902117 0 0 0-53.363847 0 37.59795 37.59795 0 0 0-11.197493 24.138544v3.53042a35.130987 35.130987 0 0 0 11.197493 23.061078 38.927589 38.927589 0 0 0 26.946832 10.290689 37.301201 37.301201 0 0 0 25.516579-9.483227l0.900436-0.801094c6.3005-5.985921 10.879093-14.646402 10.879092-23.863447v-2.208422c0-9.464123-4.584961-18.178095-10.879092-24.663267z m0 275.631273a38.898296 38.898296 0 0 0-53.363847 0 35.738494 35.738494 0 0 0-11.197493 23.061078v3.234944a36.594353 36.594353 0 0 0 11.197493 24.162743 39.141554 39.141554 0 0 0 26.946832 10.570881 40.126047 40.126047 0 0 0 25.516579-9.489595l0.900436-1.076192c6.3005-6.259745 10.879093-14.39805 10.879092-24.439113v-2.152385c0-8.9394-4.584961-17.902997-10.879092-23.862172z" p-id="4422"></path></svg>