<?xml version="1.0" standalone="no"?>
<!DOCTYPE svg PUBLIC "-//W3C//DTD SVG 1.1//EN" "http://www.w3.org/Graphics/SVG/1.1/DTD/svg11.dtd">
<svg t="1629297410590" class="icon" viewBox="0 0 1024 1024" version="1.1" xmlns="http://www.w3.org/2000/svg" p-id="2561" xmlns:xlink="http://www.w3.org/1999/xlink" width="200" height="200">
    <defs>
        <style type="text/css"></style>
    </defs>
    <path d="M758.09376758 530.90685641C758.09376758 550.34004297 741.86587109 566.09375195 722.90686133 566.09375195L301.09313867 566.09375195C281.65994141 566.09375195 265.90623242 549.8658497 265.90623242 530.90685641L265.90623242 109.09314447C265.90623242 89.65995956 282.13412891 73.90624976 301.09313867 73.90624976L476.84373242 73.90624976C496.26000195 73.90624976 512 58.16626078 512 38.7500003 512 19.33373901 496.26000195 3.59375003 476.84373242 3.59375003L265.5826543 3.59375003C227.63267773 3.59375003 195.59375 34.92884442 195.59375 73.58264197L195.59375 566.41735645C195.59375 604.36734867 226.92883203 636.40625003 265.5826543 636.40625003L758.4173457 636.40625003C796.36732227 636.40625003 828.40625 605.07115728 828.40625 566.41735645L828.40625 355.15625195C828.40625 335.73998736 812.66625195 320.00000003 793.24998242 320.00000003 773.83376563 320.00000003 758.09376758 335.73998736 758.09376758 355.15625195L758.09376758 530.90685641 758.09376758 530.90685641ZM648.89548437 74.66231072C629.65830078 74.66231072 614.06342773 58.35448047 614.06342773 39.50606045 614.06342773 20.08979999 629.23352539 4.349811 648.89548437 4.349811L790.16892383 4.349811C799.73235547 4.349811 808.39561133 8.38015097 814.69019727 14.74935687 821.1095 20.73955011 825.00092773 29.40543526 825.00092773 39.18184869L825.00092773 180.45527332C825.00092773 199.69247586 808.69313867 215.28731348 789.84471289 215.28731348 770.42844336 215.28731348 754.68844531 200.11720593 754.68844531 180.45527332L754.68844531 124.38075656 446.10238672 432.96678714C432.36107422 446.70812601 409.69014453 446.31630466 396.36232227 432.98845602 382.63292773 419.25908786 382.97791602 396.65437607 396.38394336 383.24834378L704.97000195 74.66231072 648.89548437 74.66231072 648.89548437 74.66231072Z" p-id="2562"></path>
</svg>