<svg t="1633760117007" class="icon" viewBox="0 0 1024 1024" version="1.1" xmlns="http://www.w3.org/2000/svg" p-id="4201" width="200" height="200"><path d="M448 64v195.2a224.832 224.832 0 0 0-100.992 42.24L208.512 163.2l-45.248 45.312 138.24 138.496A218.624 218.624 0 0 0 259.008 448H64v64h195.008c5.504 37.76 20.48 72 42.496 100.992l-138.24 138.496 45.248 45.248 138.496-138.496c28.992 21.76 63.488 36.992 100.992 42.496V896h64v-195.2a222.4 222.4 0 0 0 100.992-42.56l138.496 138.496 45.248-45.248-138.496-138.496A216.32 216.32 0 0 0 700.992 512H896V448h-195.008a216.32 216.32 0 0 0-42.752-100.992l138.496-138.496-45.248-45.248-138.496 138.24A224.832 224.832 0 0 0 512 259.2V64z m32 256C568.768 320 640 391.232 640 480S568.768 640 480 640A159.488 159.488 0 0 1 320 480C320 391.232 391.232 320 480 320z" p-id="4202"></path></svg>